# xmcd
#
# Track frame offsets:
#	150
#	18095
#	33495
#	47607
#	60927
#	75567
#	91630
#	107055
#	124187
#	137485
#	148870
#	165855
#
# Disc length: 2436 seconds
#
# Revision: 1
# Processed by: cddbd v1.4PL0 Copyright (c) Steve Scherf et al.
# Submitted via: audiograbber 1.82.00
#
DISCID=8709820c
DTITLE=Teen Queens - Get Happy
DYEAR=1900
DGENRE=
TTITLE0=Be My Baby
TTITLE1=I Can't Help Myself
TTITLE2=Just One Look
TTITLE3=Where Did Our Love Go
TTITLE4=Stay Awhile
TTITLE5=Please Mr Postman
TTITLE6=Wouldn't It Be Nice
TTITLE7=Wishin and Hopin
TTITLE8=Bossa Nova Baby
TTITLE9=Twist and Shout
TTITLE10=Boy From New York City
TTITLE11=I Love How You Love Me
EXTD=
EXTT0=
EXTT1=
EXTT2=
EXTT3=
EXTT4=
EXTT5=
EXTT6=
EXTT7=
EXTT8=
EXTT9=
EXTT10=
EXTT11=
PLAYORDER=
